<svg xmlns="http://www.w3.org/2000/svg" xmlns:xlink="http://www.w3.org/1999/xlink" version="1.1" style="enable-background:new 0 0 512 512.001;" xml:space="preserve" width="512" height="512.0009765625"><rect id="backgroundrect" width="100%" height="100%" x="0" y="0" fill="none" stroke="none"/>
















<g class="currentLayer" style=""><title>Layer 1</title><g id="svg_1" class="selected" stroke-opacity="1" stroke="#ff0000" stroke-width="20" fill-opacity="1" fill="#ff0000">
	<g id="svg_2" stroke="#ff0000" stroke-width="20" fill="#ff0000">
		<path d="M282.7480915158442,255.16368531363162 L494.78416951474134,41.67815266393411 c7.465197582459889,-7.515266566876732 7.465197582459889,-19.701353097341123 0,-27.216619664217852 c-7.465197582459889,-7.516228828921146 -19.56759125634154,-7.516228828921146 -27.03183311001095,0 L255.71625840583323,227.94706564941382 L43.680180406936024,14.461532999716248 c-7.465197582459889,-7.516228828921146 -19.56759125634154,-7.516228828921146 -27.03183311001095,0 c-7.465197582459889,7.515266566876732 -7.465197582459889,19.701353097341123 0,27.216619664217852 L228.6844252958223,255.16368531363162 L16.648347296925074,468.6492179633292 c-7.465197582459889,7.516228828921146 -7.465197582459889,19.701353097341123 0,27.216619664217852 c7.4642418536694075,7.515266566876732 19.566635527551057,7.516228828921146 27.03183311001095,0 L255.71625840583323,282.38030497784945 l212.0360779988972,213.48553264969752 c7.4642418536694075,7.515266566876732 19.566635527551057,7.516228828921146 27.03183311001095,0 c7.465197582459889,-7.516228828921146 7.465197582459889,-19.701353097341123 0,-27.216619664217852 L282.7480915158442,255.16368531363162 z" id="svg_3" stroke="#ff0000" stroke-width="20" fill="#ff0000"/>
	</g>
</g><g id="svg_4">
</g><g id="svg_5">
</g><g id="svg_6">
</g><g id="svg_7">
</g><g id="svg_8">
</g><g id="svg_9">
</g><g id="svg_10">
</g><g id="svg_11">
</g><g id="svg_12">
</g><g id="svg_13">
</g><g id="svg_14">
</g><g id="svg_15">
</g><g id="svg_16">
</g><g id="svg_17">
</g><g id="svg_18">
</g></g></svg>