<svg xmlns="http://www.w3.org/2000/svg" xmlns:xlink="http://www.w3.org/1999/xlink" version="1.1" style="enable-background:new 0 0 512 512;" xml:space="preserve" width="512" height="512"><rect id="backgroundrect" width="100%" height="100%" x="0" y="0" fill="none" stroke="none"/>
















<g class="currentLayer" style=""><title>Layer 1</title><g id="svg_1" class="" fill="#ffc107" fill-opacity="1">
	<g id="svg_2" fill="#ffc107" fill-opacity="1">
		<path d="M432,0H80C35.888,0,0,35.888,0,80v352c0,44.112,35.888,80,80,80h352c44.112,0,80-35.888,80-80V80    C512,35.888,476.112,0,432,0z M472,432c0,22.056-17.944,40-40,40H80c-22.056,0-40-17.944-40-40V80c0-22.056,17.944-40,40-40h352    c22.056,0,40,17.944,40,40V432z" id="svg_3" fill="#ffc107" fill-opacity="1"/>
	</g>
</g><g class="" fill="#ffc107" fill-opacity="1" id="svg_19">
	<g id="svg_21" fill="#ffc107" fill-opacity="1">
		<path d="M419.36877727508545,20 H93.95718097686768 C53.17719138622284,20 20,53.17719138622284 20,93.95718097686768 v325.4115962982178 c0,40.77998959064484 33.17719138622284,73.95718097686768 73.95718097686768,73.95718097686768 h325.4115962982178 c40.77998959064484,0 73.95718097686768,-33.17719138622284 73.95718097686768,-73.95718097686768 V93.95718097686768 C493.3259582519531,53.17719138622284 460.1487668657303,20 419.36877727508545,20 zM456.3473677635193,419.36877727508545 c0,20.38999479532242 -16.58859569311142,36.97859048843384 -36.97859048843384,36.97859048843384 H93.95718097686768 c-20.38999479532242,0 -36.97859048843384,-16.58859569311142 -36.97859048843384,-36.97859048843384 V93.95718097686768 c0,-20.38999479532242 16.58859569311142,-36.97859048843384 36.97859048843384,-36.97859048843384 h325.4115962982178 c20.38999479532242,0 36.97859048843384,16.58859569311142 36.97859048843384,36.97859048843384 V419.36877727508545 z" id="svg_3" fill="#ffc107" fill-opacity="1"/>
	</g>
</g><g id="svg_4">
</g><g id="svg_5">
</g><g id="svg_6">
</g><g id="svg_7">
</g><g id="svg_8">
</g><g id="svg_9">
</g><g id="svg_10">
</g><g id="svg_11">
</g><g id="svg_12">
</g><g id="svg_13">
</g><g id="svg_14">
</g><g id="svg_15">
</g><g id="svg_16">
</g><g id="svg_17">
</g><g id="svg_18">
</g></g></svg>